<mxfile host="app.diagrams.net" modified="2021-08-26T17:44:28.152Z" agent="5.0 (Windows)" etag="VWeCh0vUG9pnfxbCTGMP" version="15.0.1" type="github">
  <diagram id="O4BBfiLtVIRsQCUv6HuZ" name="Page-1">
    <mxGraphModel dx="868" dy="440" grid="1" gridSize="10" guides="1" tooltips="1" connect="1" arrows="1" fold="1" page="1" pageScale="1" pageWidth="827" pageHeight="1169" math="0" shadow="0">
      <root>
        <mxCell id="0" />
        <mxCell id="1" parent="0" />
        <mxCell id="pZBnCoIwAa3xCrTq0z9h-42" style="edgeStyle=orthogonalEdgeStyle;rounded=0;orthogonalLoop=1;jettySize=auto;html=1;entryX=0.5;entryY=1;entryDx=0;entryDy=0;fontSize=12;" parent="1" source="pZBnCoIwAa3xCrTq0z9h-10" target="pZBnCoIwAa3xCrTq0z9h-14" edge="1">
          <mxGeometry relative="1" as="geometry">
            <Array as="points">
              <mxPoint x="80" y="140" />
              <mxPoint x="80" y="140" />
            </Array>
          </mxGeometry>
        </mxCell>
        <mxCell id="pZBnCoIwAa3xCrTq0z9h-10" value="Persona" style="swimlane;fontStyle=0;childLayout=stackLayout;horizontal=1;startSize=26;fillColor=none;horizontalStack=0;resizeParent=1;resizeParentMax=0;resizeLast=0;collapsible=1;marginBottom=0;glass=0;" parent="1" vertex="1">
          <mxGeometry x="10" y="190" width="140" height="136" as="geometry" />
        </mxCell>
        <mxCell id="pZBnCoIwAa3xCrTq0z9h-11" value="Apellido&#xa;Nombre&#xa;DNI&#xa;(Fecha) Nacimiento&#xa;Telefono&#xa;Mail&#xa;(Direccion) D&#xa;&#xa;" style="text;strokeColor=none;fillColor=none;align=left;verticalAlign=top;spacingLeft=4;spacingRight=4;overflow=hidden;rotatable=0;points=[[0,0.5],[1,0.5]];portConstraint=eastwest;fontSize=12;fontStyle=0" parent="pZBnCoIwAa3xCrTq0z9h-10" vertex="1">
          <mxGeometry y="26" width="140" height="110" as="geometry" />
        </mxCell>
        <mxCell id="pZBnCoIwAa3xCrTq0z9h-14" value="Fecha" style="swimlane;fontStyle=0;childLayout=stackLayout;horizontal=1;startSize=26;fillColor=none;horizontalStack=0;resizeParent=1;resizeParentMax=0;resizeLast=0;collapsible=1;marginBottom=0;glass=0;fontSize=12;" parent="1" vertex="1">
          <mxGeometry x="10" y="10" width="140" height="82" as="geometry" />
        </mxCell>
        <mxCell id="pZBnCoIwAa3xCrTq0z9h-12" value="Dia&#xa;Mes&#xa;Anio&#xa;" style="text;strokeColor=none;fillColor=none;align=left;verticalAlign=top;spacingLeft=4;spacingRight=4;overflow=hidden;rotatable=0;points=[[0,0.5],[1,0.5]];portConstraint=eastwest;" parent="pZBnCoIwAa3xCrTq0z9h-14" vertex="1">
          <mxGeometry y="26" width="140" height="56" as="geometry" />
        </mxCell>
        <mxCell id="pZBnCoIwAa3xCrTq0z9h-18" value="Direccion" style="swimlane;fontStyle=0;childLayout=stackLayout;horizontal=1;startSize=26;fillColor=none;horizontalStack=0;resizeParent=1;resizeParentMax=0;resizeLast=0;collapsible=1;marginBottom=0;glass=0;fontSize=12;" parent="1" vertex="1">
          <mxGeometry x="200" y="10" width="140" height="106" as="geometry" />
        </mxCell>
        <mxCell id="pZBnCoIwAa3xCrTq0z9h-15" value="Calle&#xa;Numero&#xa;Provincia&#xa;Localidad&#xa;Codigo Postal" style="text;strokeColor=none;fillColor=none;align=left;verticalAlign=top;spacingLeft=4;spacingRight=4;overflow=hidden;rotatable=0;points=[[0,0.5],[1,0.5]];portConstraint=eastwest;" parent="pZBnCoIwAa3xCrTq0z9h-18" vertex="1">
          <mxGeometry y="26" width="140" height="80" as="geometry" />
        </mxCell>
        <mxCell id="pZBnCoIwAa3xCrTq0z9h-54" style="edgeStyle=orthogonalEdgeStyle;rounded=0;orthogonalLoop=1;jettySize=auto;html=1;fontSize=12;" parent="1" source="pZBnCoIwAa3xCrTq0z9h-22" edge="1">
          <mxGeometry relative="1" as="geometry">
            <mxPoint x="510" y="278" as="targetPoint" />
          </mxGeometry>
        </mxCell>
        <mxCell id="pZBnCoIwAa3xCrTq0z9h-22" value="Cliente" style="swimlane;fontStyle=0;childLayout=stackLayout;horizontal=1;startSize=26;fillColor=none;horizontalStack=0;resizeParent=1;resizeParentMax=0;resizeLast=0;collapsible=1;marginBottom=0;glass=0;fontSize=12;" parent="1" vertex="1">
          <mxGeometry x="280" y="240" width="140" height="76" as="geometry" />
        </mxCell>
        <mxCell id="pZBnCoIwAa3xCrTq0z9h-25" value="IDcliente&#xa;(Pasillo) P&#xa;" style="text;strokeColor=none;fillColor=none;align=left;verticalAlign=top;spacingLeft=4;spacingRight=4;overflow=hidden;rotatable=0;points=[[0,0.5],[1,0.5]];portConstraint=eastwest;" parent="pZBnCoIwAa3xCrTq0z9h-22" vertex="1">
          <mxGeometry y="26" width="140" height="50" as="geometry" />
        </mxCell>
        <mxCell id="pZBnCoIwAa3xCrTq0z9h-56" style="edgeStyle=orthogonalEdgeStyle;rounded=0;orthogonalLoop=1;jettySize=auto;html=1;entryX=0.5;entryY=0;entryDx=0;entryDy=0;fontSize=12;" parent="1" source="pZBnCoIwAa3xCrTq0z9h-26" target="pZBnCoIwAa3xCrTq0z9h-30" edge="1">
          <mxGeometry relative="1" as="geometry" />
        </mxCell>
        <mxCell id="pZBnCoIwAa3xCrTq0z9h-26" value="Pasillo" style="swimlane;fontStyle=0;childLayout=stackLayout;horizontal=1;startSize=26;fillColor=none;horizontalStack=0;resizeParent=1;resizeParentMax=0;resizeLast=0;collapsible=1;marginBottom=0;glass=0;fontSize=12;" parent="1" vertex="1">
          <mxGeometry x="520" y="236" width="140" height="80" as="geometry" />
        </mxCell>
        <mxCell id="pZBnCoIwAa3xCrTq0z9h-29" value="NroPasillo&#xa;(Lado) L&#xa;CantidadDeLados&#xa;" style="text;strokeColor=none;fillColor=none;align=left;verticalAlign=top;spacingLeft=4;spacingRight=4;overflow=hidden;rotatable=0;points=[[0,0.5],[1,0.5]];portConstraint=eastwest;" parent="pZBnCoIwAa3xCrTq0z9h-26" vertex="1">
          <mxGeometry y="26" width="140" height="54" as="geometry" />
        </mxCell>
        <mxCell id="pZBnCoIwAa3xCrTq0z9h-66" style="edgeStyle=orthogonalEdgeStyle;rounded=0;orthogonalLoop=1;jettySize=auto;html=1;entryX=0.5;entryY=0;entryDx=0;entryDy=0;fontSize=12;" parent="1" source="pZBnCoIwAa3xCrTq0z9h-30" target="pZBnCoIwAa3xCrTq0z9h-34" edge="1">
          <mxGeometry relative="1" as="geometry" />
        </mxCell>
        <mxCell id="pZBnCoIwAa3xCrTq0z9h-30" value="Lado" style="swimlane;fontStyle=0;childLayout=stackLayout;horizontal=1;startSize=26;fillColor=none;horizontalStack=0;resizeParent=1;resizeParentMax=0;resizeLast=0;collapsible=1;marginBottom=0;glass=0;fontSize=12;" parent="1" vertex="1">
          <mxGeometry x="520" y="360" width="140" height="66" as="geometry" />
        </mxCell>
        <mxCell id="pZBnCoIwAa3xCrTq0z9h-31" value="CodLado&#xa;(Compartimiento)&#xa;" style="text;strokeColor=none;fillColor=none;align=left;verticalAlign=top;spacingLeft=4;spacingRight=4;overflow=hidden;rotatable=0;points=[[0,0.5],[1,0.5]];portConstraint=eastwest;" parent="pZBnCoIwAa3xCrTq0z9h-30" vertex="1">
          <mxGeometry y="26" width="140" height="40" as="geometry" />
        </mxCell>
        <mxCell id="pZBnCoIwAa3xCrTq0z9h-34" value="Compartimiento" style="swimlane;fontStyle=0;childLayout=stackLayout;horizontal=1;startSize=26;fillColor=none;horizontalStack=0;resizeParent=1;resizeParentMax=0;resizeLast=0;collapsible=1;marginBottom=0;glass=0;fontSize=12;" parent="1" vertex="1">
          <mxGeometry x="520" y="480" width="140" height="110" as="geometry" />
        </mxCell>
        <mxCell id="pZBnCoIwAa3xCrTq0z9h-35" value="NroCompartimiento&#xa;(Producto) P&#xa;CapacidadMaxima&#xa;CapacidadActual&#xa;Estado&#xa;" style="text;strokeColor=none;fillColor=none;align=left;verticalAlign=top;spacingLeft=4;spacingRight=4;overflow=hidden;rotatable=0;points=[[0,0.5],[1,0.5]];portConstraint=eastwest;" parent="pZBnCoIwAa3xCrTq0z9h-34" vertex="1">
          <mxGeometry y="26" width="140" height="84" as="geometry" />
        </mxCell>
        <mxCell id="pZBnCoIwAa3xCrTq0z9h-38" value="Producto" style="swimlane;fontStyle=0;childLayout=stackLayout;horizontal=1;startSize=26;fillColor=none;horizontalStack=0;resizeParent=1;resizeParentMax=0;resizeLast=0;collapsible=1;marginBottom=0;glass=0;fontSize=12;" parent="1" vertex="1">
          <mxGeometry x="300" y="480" width="140" height="106" as="geometry" />
        </mxCell>
        <mxCell id="pZBnCoIwAa3xCrTq0z9h-41" value="IDproducto&#xa;Descripccion&#xa;(Fecha) Vencimiento&#xa;Categoria&#xa;CantStock" style="text;strokeColor=none;fillColor=none;align=left;verticalAlign=top;spacingLeft=4;spacingRight=4;overflow=hidden;rotatable=0;points=[[0,0.5],[1,0.5]];portConstraint=eastwest;" parent="pZBnCoIwAa3xCrTq0z9h-38" vertex="1">
          <mxGeometry y="26" width="140" height="80" as="geometry" />
        </mxCell>
        <mxCell id="pZBnCoIwAa3xCrTq0z9h-43" value="&lt;b&gt;Tiene&lt;/b&gt;" style="text;html=1;strokeColor=none;fillColor=none;align=center;verticalAlign=middle;whiteSpace=wrap;rounded=0;glass=0;fontSize=12;" parent="1" vertex="1">
          <mxGeometry x="40" y="130" width="40" height="20" as="geometry" />
        </mxCell>
        <mxCell id="pZBnCoIwAa3xCrTq0z9h-45" value="&lt;b&gt;Tiene&lt;/b&gt;" style="text;html=1;strokeColor=none;fillColor=none;align=center;verticalAlign=middle;whiteSpace=wrap;rounded=0;glass=0;fontSize=12;" parent="1" vertex="1">
          <mxGeometry x="200" y="220" width="40" height="20" as="geometry" />
        </mxCell>
        <mxCell id="pZBnCoIwAa3xCrTq0z9h-47" value="&lt;b&gt;Es&lt;/b&gt;" style="text;html=1;strokeColor=none;fillColor=none;align=center;verticalAlign=middle;whiteSpace=wrap;rounded=0;glass=0;fontSize=12;" parent="1" vertex="1">
          <mxGeometry x="200" y="260" width="40" height="20" as="geometry" />
        </mxCell>
        <mxCell id="pZBnCoIwAa3xCrTq0z9h-50" value="&lt;b&gt;Tiene&lt;/b&gt;" style="text;html=1;strokeColor=none;fillColor=none;align=center;verticalAlign=middle;whiteSpace=wrap;rounded=0;glass=0;fontSize=12;" parent="1" vertex="1">
          <mxGeometry x="450" y="260" width="40" height="20" as="geometry" />
        </mxCell>
        <mxCell id="pZBnCoIwAa3xCrTq0z9h-52" style="edgeStyle=orthogonalEdgeStyle;rounded=0;orthogonalLoop=1;jettySize=auto;html=1;entryX=-0.029;entryY=0.3;entryDx=0;entryDy=0;entryPerimeter=0;fontSize=12;" parent="1" source="pZBnCoIwAa3xCrTq0z9h-11" target="pZBnCoIwAa3xCrTq0z9h-25" edge="1">
          <mxGeometry relative="1" as="geometry">
            <Array as="points">
              <mxPoint x="170" y="281" />
              <mxPoint x="170" y="281" />
            </Array>
          </mxGeometry>
        </mxCell>
        <mxCell id="pZBnCoIwAa3xCrTq0z9h-55" style="edgeStyle=orthogonalEdgeStyle;rounded=0;orthogonalLoop=1;jettySize=auto;html=1;fontSize=12;" parent="1" source="pZBnCoIwAa3xCrTq0z9h-11" edge="1">
          <mxGeometry relative="1" as="geometry">
            <mxPoint x="240" y="120" as="targetPoint" />
            <Array as="points">
              <mxPoint x="240" y="240" />
            </Array>
          </mxGeometry>
        </mxCell>
        <mxCell id="pZBnCoIwAa3xCrTq0z9h-59" value="&lt;b&gt;Tiene&lt;/b&gt;" style="text;html=1;strokeColor=none;fillColor=none;align=center;verticalAlign=middle;whiteSpace=wrap;rounded=0;glass=0;fontSize=12;" parent="1" vertex="1">
          <mxGeometry x="550" y="326" width="40" height="20" as="geometry" />
        </mxCell>
        <mxCell id="pZBnCoIwAa3xCrTq0z9h-67" value="&lt;b&gt;Tiene&lt;/b&gt;" style="text;html=1;strokeColor=none;fillColor=none;align=center;verticalAlign=middle;whiteSpace=wrap;rounded=0;glass=0;fontSize=12;" parent="1" vertex="1">
          <mxGeometry x="550" y="446" width="40" height="20" as="geometry" />
        </mxCell>
        <mxCell id="pZBnCoIwAa3xCrTq0z9h-68" style="edgeStyle=orthogonalEdgeStyle;rounded=0;orthogonalLoop=1;jettySize=auto;html=1;fontSize=12;" parent="1" source="pZBnCoIwAa3xCrTq0z9h-35" edge="1">
          <mxGeometry relative="1" as="geometry">
            <mxPoint x="440" y="548" as="targetPoint" />
          </mxGeometry>
        </mxCell>
        <mxCell id="pZBnCoIwAa3xCrTq0z9h-69" value="&lt;b&gt;Tiene&lt;/b&gt;" style="text;html=1;strokeColor=none;fillColor=none;align=center;verticalAlign=middle;whiteSpace=wrap;rounded=0;glass=0;fontSize=12;" parent="1" vertex="1">
          <mxGeometry x="460" y="525" width="40" height="20" as="geometry" />
        </mxCell>
        <mxCell id="pZBnCoIwAa3xCrTq0z9h-76" style="edgeStyle=orthogonalEdgeStyle;rounded=0;orthogonalLoop=1;jettySize=auto;html=1;entryX=0.5;entryY=0;entryDx=0;entryDy=0;fontSize=12;" parent="1" source="pZBnCoIwAa3xCrTq0z9h-71" target="pZBnCoIwAa3xCrTq0z9h-26" edge="1">
          <mxGeometry relative="1" as="geometry" />
        </mxCell>
        <mxCell id="pZBnCoIwAa3xCrTq0z9h-71" value="Deposito" style="swimlane;fontStyle=0;childLayout=stackLayout;horizontal=1;startSize=26;fillColor=none;horizontalStack=0;resizeParent=1;resizeParentMax=0;resizeLast=0;collapsible=1;marginBottom=0;glass=0;" parent="1" vertex="1">
          <mxGeometry x="520" y="10" width="140" height="100" as="geometry" />
        </mxCell>
        <mxCell id="pZBnCoIwAa3xCrTq0z9h-72" value="NroDeposito&#xa;(Pasillo) P&#xa;(Direccion) D&#xa;CantidadDePasillos&#xa;" style="text;strokeColor=none;fillColor=none;align=left;verticalAlign=top;spacingLeft=4;spacingRight=4;overflow=hidden;rotatable=0;points=[[0,0.5],[1,0.5]];portConstraint=eastwest;fontSize=12;fontStyle=0" parent="pZBnCoIwAa3xCrTq0z9h-71" vertex="1">
          <mxGeometry y="26" width="140" height="74" as="geometry" />
        </mxCell>
        <mxCell id="pZBnCoIwAa3xCrTq0z9h-74" value="&lt;b&gt;Tiene&lt;/b&gt;" style="text;html=1;strokeColor=none;fillColor=none;align=center;verticalAlign=middle;whiteSpace=wrap;rounded=0;glass=0;fontSize=12;" parent="1" vertex="1">
          <mxGeometry x="410" y="53" width="40" height="20" as="geometry" />
        </mxCell>
        <mxCell id="pZBnCoIwAa3xCrTq0z9h-75" style="edgeStyle=orthogonalEdgeStyle;rounded=0;orthogonalLoop=1;jettySize=auto;html=1;entryX=1.02;entryY=0.463;entryDx=0;entryDy=0;entryPerimeter=0;fontSize=12;" parent="1" source="pZBnCoIwAa3xCrTq0z9h-72" target="pZBnCoIwAa3xCrTq0z9h-15" edge="1">
          <mxGeometry relative="1" as="geometry" />
        </mxCell>
        <mxCell id="pZBnCoIwAa3xCrTq0z9h-77" value="&lt;b&gt;Tiene&lt;/b&gt;" style="text;html=1;strokeColor=none;fillColor=none;align=center;verticalAlign=middle;whiteSpace=wrap;rounded=0;glass=0;fontSize=12;" parent="1" vertex="1">
          <mxGeometry x="550" y="160" width="40" height="20" as="geometry" />
        </mxCell>
      </root>
    </mxGraphModel>
  </diagram>
</mxfile>
